<svg width="244" height="51" viewBox="0 0 244 51" fill="none" xmlns="http://www.w3.org/2000/svg">
<path d="M79.7684 10.7149C77.5938 10.7122 75.4545 11.2647 73.5531 12.32C73.2824 11.9759 72.9375 11.6974 72.5442 11.505C72.1509 11.3127 71.7191 11.2115 71.2813 11.2091C70.5079 11.2091 69.7663 11.5163 69.2194 12.0632C68.6725 12.61 68.3652 13.3518 68.3652 14.1252V48.0849C68.3652 48.8583 68.6725 49.5999 69.2194 50.1467C69.7663 50.6936 70.5079 51.0009 71.2813 51.0009C72.0547 51.0009 72.7964 50.6936 73.3433 50.1467C73.8902 49.5999 74.1974 48.8583 74.1974 48.0849V35.1375C75.9301 35.9723 77.8284 36.407 79.7518 36.4095C83.162 36.4095 86.4327 35.0548 88.8441 32.6433C91.2555 30.2319 92.6103 26.9613 92.6103 23.551C92.6059 20.147 91.2513 16.8838 88.8438 14.4774C86.4363 12.0709 83.1724 10.7178 79.7684 10.7149ZM79.7684 31.2661H79.7019C78.2246 31.2355 76.8188 30.6245 75.7887 29.5652C74.7585 28.506 74.1868 27.0836 74.1974 25.6061V21.4959C74.1883 20.0188 74.7605 18.5973 75.7903 17.5384C76.8201 16.4795 78.2251 15.868 79.7019 15.836H79.7684C83.7454 15.836 86.9892 19.2908 86.9892 23.551C86.9892 27.8112 83.7454 31.2828 79.7684 31.2828V31.2661Z" fill="#2B2B2B"/>
<path d="M146.02 12.2686C142.687 13.124 142.982 11.4688 139.088 11.23C137.316 11.0993 135.548 11.5287 134.034 12.4575C133.765 12.0773 133.408 11.7675 132.995 11.5538C132.581 11.3402 132.122 11.2291 131.656 11.23C130.883 11.23 130.141 11.5372 129.594 12.084C129.047 12.6309 128.74 13.3727 128.74 14.1461V33.5142C128.74 34.2876 129.047 35.0293 129.594 35.5762C130.141 36.1231 130.883 36.4302 131.656 36.4302C132.43 36.4302 133.171 36.1231 133.718 35.5762C134.265 35.0293 134.572 34.2876 134.572 33.5142V18.9229C135.922 17.1455 137.905 15.6513 139.96 16.3678C143.465 17.612 145.759 17.2621 147.275 16.84C147.767 16.6958 148.199 16.3946 148.503 15.9824C148.808 15.5703 148.97 15.0697 148.964 14.5571C148.964 14.1973 148.882 13.8423 148.724 13.5192C148.566 13.196 148.336 12.9132 148.052 12.6924C147.768 12.4716 147.437 12.3186 147.085 12.2451C146.733 12.1717 146.368 12.1797 146.02 12.2686Z" fill="#2B2B2B"/>
<path fill-rule="evenodd" clip-rule="evenodd" d="M32.7147 28.6385C30.9458 30.9665 28.6299 32.8221 25.9723 34.0409C23.3147 35.2598 20.3974 35.8041 17.4791 35.6259C13.0901 35.354 8.95524 33.4742 5.86486 30.3459C2.77448 27.2176 0.945394 23.0602 0.727041 18.6683C0.612789 16.2589 0.988691 13.8515 1.83209 11.5917C2.67549 9.33191 3.96879 7.26682 5.63365 5.52147C7.29851 3.77612 9.30022 2.38679 11.5177 1.43771C13.7352 0.488636 16.1223 -0.000430179 18.5343 2.22409e-05C21.2215 -0.00422811 23.8747 0.600772 26.2942 1.76967C28.7138 2.93857 30.8369 4.64089 32.5037 6.74856C32.8676 7.21182 33.0937 7.76811 33.1563 8.35386C33.2188 8.93961 33.1151 9.53122 32.8573 10.0609C32.5994 10.5905 32.1978 11.0368 31.6981 11.3488C31.1985 11.6609 30.621 11.8261 30.0319 11.8254C29.5382 11.8299 29.0504 11.7193 28.6068 11.5023C28.1633 11.2854 27.7765 10.9681 27.477 10.5756C26.4497 9.16624 25.1058 8.01774 23.5535 7.22277C22.0012 6.42781 20.2839 6.00862 18.5399 5.9988C12.2912 5.9988 7.22566 11.292 7.22566 17.824C7.22566 24.356 12.2912 29.6493 18.5399 29.6493C20.2843 29.6417 22.0024 29.2235 23.555 28.4283C25.1076 27.6332 26.4513 26.4835 27.477 25.0725C27.756 24.6893 28.1208 24.3768 28.5423 24.1598C28.9638 23.9428 29.4301 23.8273 29.9042 23.8228H30.3652C30.9226 23.8255 31.4681 23.9842 31.94 24.2807C32.412 24.5772 32.7917 24.9998 33.0361 25.5008C33.2805 26.0017 33.3798 26.5609 33.3231 27.1154C33.2663 27.6699 33.0556 28.1975 32.7147 28.6385Z" fill="url(#paint0_linear_6036_2923)"/>
<path d="M117.003 28.2824C116.309 28.3109 115.651 28.5982 115.159 29.0877C113.879 30.3222 112.171 31.0147 110.393 31.0207C106.822 31.0207 103.856 28.2435 103.289 24.5776H118.569C119.052 24.5844 119.534 24.5265 120.002 24.4054C120.588 24.2464 121.129 23.9557 121.585 23.5556C122.037 23.0966 122.349 22.5187 122.485 21.8893C122.67 21.1824 122.683 20.4417 122.524 19.7287C122.253 18.3404 121.684 17.0271 120.858 15.8794C119.728 14.2826 118.249 12.9639 116.535 12.0227C114.82 11.0816 112.913 10.5429 110.96 10.4473C109.154 10.3639 107.352 10.6621 105.669 11.3226C103.987 11.9831 102.463 12.991 101.197 14.2804C99.9302 15.5699 98.9501 17.1119 98.32 18.8059C97.69 20.4998 97.4242 22.3075 97.5401 24.111C97.7491 27.2485 99.0975 30.2014 101.332 32.414C103.566 34.6267 106.532 35.9466 109.671 36.1253C113.038 36.3166 116.345 35.1686 118.869 32.9315C119.264 32.5611 119.538 32.0801 119.655 31.5516C119.772 31.023 119.726 30.4714 119.525 29.969C119.323 29.4667 118.975 29.0369 118.525 28.736C118.075 28.435 117.544 28.2769 117.003 28.2824ZM110.388 15.5962C111.632 15.609 112.851 15.948 113.923 16.5796C114.995 17.2112 115.883 18.1133 116.497 19.1955C116.553 19.2813 116.583 19.3806 116.586 19.4827C116.588 19.5847 116.562 19.6856 116.511 19.774C116.46 19.8623 116.386 19.9349 116.296 19.9837C116.206 20.0326 116.105 20.0557 116.003 20.0507H104.811C104.709 20.0557 104.608 20.0326 104.518 19.9837C104.428 19.9349 104.354 19.8623 104.303 19.774C104.252 19.6856 104.226 19.5847 104.228 19.4827C104.231 19.3806 104.261 19.2813 104.317 19.1955C104.926 18.1178 105.808 17.2185 106.873 16.5871C107.938 15.9557 109.149 15.6141 110.388 15.5962Z" fill="#2B2B2B"/>
<path d="M55.7049 13.4466L52.4333 28.1713C52.3284 28.644 52.0653 29.0668 51.6876 29.3698C51.3099 29.6728 50.8401 29.8378 50.3559 29.8376C49.8717 29.8378 49.402 29.6728 49.0243 29.3698C48.6466 29.0668 48.3835 28.644 48.2786 28.1713L44.9793 13.3133C44.8318 12.6525 44.4638 12.0614 43.9358 11.6375C43.4079 11.2135 42.7515 10.9819 42.0744 10.9805C41.6282 10.9805 41.1879 11.0809 40.7857 11.2741C40.3836 11.4672 40.0299 11.7483 39.7511 12.0965C39.4722 12.4447 39.2751 12.8511 39.1745 13.2858C39.0738 13.7204 39.0721 14.1721 39.1694 14.6075L42.5021 29.7099C42.8252 31.1666 43.57 32.4959 44.6437 33.5321C45.7174 34.5682 47.0724 35.2654 48.5396 35.5364C48.8376 35.6219 49.1462 35.6649 49.4562 35.6642H51.0224L48.4786 47.1007C48.3804 47.5409 48.3823 47.9975 48.4843 48.4369C48.5863 48.8762 48.7858 49.2869 49.0678 49.6389C49.3499 49.9908 49.7074 50.2749 50.114 50.4701C50.5206 50.6653 50.9658 50.7666 51.4168 50.7666C52.1016 50.7676 52.7663 50.5347 53.3006 50.1064C53.835 49.6781 54.207 49.0801 54.3551 48.4115L57.1879 35.6697L61.8203 14.813C61.9227 14.3531 61.9203 13.8762 61.8135 13.4173C61.7067 12.9584 61.4982 12.5294 61.2033 12.162C60.9084 11.7946 60.5348 11.4981 60.1099 11.2945C59.685 11.091 59.2198 10.9856 58.7487 10.986C58.0374 10.9896 57.3484 11.2352 56.7952 11.6824C56.242 12.1296 55.8575 12.7518 55.7049 13.4466Z" fill="#2B2B2B"/>
<path d="M18.8856 22.9743C21.7262 22.9743 24.0289 20.6715 24.0289 17.8309C24.0289 14.9903 21.7262 12.6875 18.8856 12.6875C16.045 12.6875 13.7422 14.9903 13.7422 17.8309C13.7422 20.6715 16.045 22.9743 18.8856 22.9743Z" fill="#2B2B2B"/>
<path d="M151.215 36.3984C154.025 36.3984 156.303 34.1204 156.303 31.3105C156.303 28.5006 154.025 26.2227 151.215 26.2227C148.405 26.2227 146.127 28.5006 146.127 31.3105C146.127 34.1204 148.405 36.3984 151.215 36.3984Z" fill="#70E0BB"/>
<path d="M165.575 11.9688H168.658V18.7173H172.779V21.1057H165.559L165.575 11.9688Z" fill="#70E0BB"/>
<path d="M181.222 18.7784V21.1057H173.629V11.9688H181.055V14.2905H176.656V15.3624H180.516V17.5842H176.656V18.784L181.222 18.7784Z" fill="#70E0BB"/>
<path d="M188.631 19.5115H185.16L184.549 21.1057H181.416L185.41 11.9688H188.437L192.43 21.1057H189.248L188.631 19.5115ZM187.787 17.2898L186.898 14.9903L186.01 17.2898H187.787Z" fill="#70E0BB"/>
<path d="M196.842 18.8061H196.003V21.1057H192.926V11.9688H197.325C199.869 11.9688 201.485 13.2962 201.485 15.4125C201.509 16.0068 201.359 16.5951 201.053 17.1052C200.747 17.6153 200.299 18.025 199.763 18.284L201.685 21.1057H198.397L196.842 18.8061ZM197.13 14.3626H196.02V16.5011H197.13C197.975 16.5011 198.38 16.0957 198.38 15.4291C198.38 14.7626 197.975 14.346 197.13 14.346V14.3626Z" fill="#70E0BB"/>
<path d="M211.648 11.9688V21.1057H209.121L205.644 16.951V21.1057H202.645V11.9688H205.177L208.649 16.1179V11.9688H211.648Z" fill="#70E0BB"/>
<path d="M213.139 11.9688H216.216V21.1057H213.139V11.9688Z" fill="#70E0BB"/>
<path d="M226.724 11.9688V21.1057H224.192L220.72 16.951V21.1057H217.721V11.9688H220.254L223.725 16.1179V11.9688H226.724Z" fill="#70E0BB"/>
<path d="M234.232 16.2894H236.91V20.1774C235.72 20.9365 234.338 21.3393 232.927 21.3382C229.978 21.3382 227.828 19.372 227.828 16.5615C227.828 13.751 229.978 11.7847 232.994 11.7847C233.778 11.7429 234.561 11.8797 235.285 12.1847C236.008 12.4897 236.653 12.9549 237.171 13.5454L235.199 15.284C234.956 14.9715 234.645 14.7185 234.29 14.5443C233.935 14.37 233.545 14.2792 233.149 14.2786C232.847 14.2588 232.544 14.3048 232.261 14.4134C231.979 14.522 231.723 14.6907 231.512 14.9077C231.301 15.1247 231.139 15.3849 231.038 15.6705C230.937 15.956 230.9 16.26 230.928 16.5615C230.901 16.8589 230.939 17.1584 231.037 17.4402C231.136 17.722 231.293 17.9795 231.5 18.1956C231.706 18.4116 231.955 18.5812 232.232 18.6931C232.509 18.805 232.806 18.8565 233.105 18.8443C233.486 18.8468 233.864 18.7732 234.216 18.6277L234.232 16.2894Z" fill="#70E0BB"/>
<path d="M165.211 32.1936C165.211 29.3887 167.366 27.4168 170.304 27.4168C171.083 27.3764 171.861 27.5209 172.573 27.8385C173.286 28.1561 173.913 28.6378 174.403 29.2442L172.459 30.9828C172.236 30.6571 171.938 30.3898 171.59 30.2032C171.242 30.0167 170.855 29.9163 170.46 29.9107C169.182 29.9107 168.321 30.7995 168.321 32.1936C168.321 33.5878 169.182 34.4765 170.46 34.4765C170.854 34.4707 171.241 34.3707 171.589 34.1853C171.937 33.9998 172.235 33.734 172.459 33.41L174.403 35.1431C173.914 35.7505 173.287 36.2329 172.574 36.5506C171.861 36.8683 171.083 37.0122 170.304 36.9705C167.366 36.9705 165.211 34.9986 165.211 32.1936Z" fill="#70E0BB"/>
<path d="M175.07 32.6474V27.6484H178.153V32.5807C178.153 33.9748 178.708 34.4969 179.547 34.4969C180.386 34.4969 180.947 33.9748 180.947 32.5807V27.6484H183.974V32.6474C183.974 35.3913 182.308 36.9687 179.531 36.9687C176.753 36.9687 175.07 35.3913 175.07 32.6474Z" fill="#70E0BB"/>
<path d="M189.301 34.4631H188.467V36.7737H185.385V27.6367H189.784C192.328 27.6367 193.95 28.9642 193.95 31.0804C193.972 31.6752 193.821 32.2637 193.514 32.7737C193.207 33.2838 192.758 33.6932 192.222 33.952L194.144 36.7737H190.856L189.301 34.4631ZM189.589 30.0196H188.478V32.1635H189.589C190.439 32.1635 190.839 31.7581 190.839 31.0915C190.839 30.425 190.439 29.9973 189.589 29.9973V30.0196Z" fill="#70E0BB"/>
<path d="M204.869 27.6289L200.981 36.7659H197.954L194.094 27.6289H197.426L199.609 32.9666L201.831 27.6289H204.869Z" fill="#70E0BB"/>
<path d="M212.763 34.4353V36.7737H205.164V27.6367H212.59V29.9584H208.197V31.0304H212.085V33.2521H208.197V34.452L212.763 34.4353Z" fill="#70E0BB"/>
<defs>
<linearGradient id="paint0_linear_6036_2923" x1="-0.322739" y1="7.70951" x2="59.3091" y2="39.6916" gradientUnits="userSpaceOnUse">
<stop stop-color="#018EAD"/>
<stop offset="1" stop-color="#008DAC"/>
</linearGradient>
</defs>
</svg>
